<?xml version="1.0" encoding="utf-8"?>
<!-- Generator: Adobe Illustrator 25.2.1, SVG Export Plug-In . SVG Version: 6.00 Build 0)  -->
<svg version="1.1" id="レイヤー_1" xmlns="http://www.w3.org/2000/svg" xmlns:xlink="http://www.w3.org/1999/xlink" x="0px"
	 y="0px" viewBox="0 0 172.42 42.84" style="enable-background:new 0 0 172.42 42.84;" xml:space="preserve">
<style type="text/css">
	.st0{fill:#57463D;}
	.st1{fill:#FFE33F;}
</style>
<g>
	<g>
		<g>
			<path class="st0" d="M10.85,20.14c8.22-1.59,12.8-12.36,13.95-18.3c-1.64,0.69-3.28,1.3-4.91,1.3c-2.75,0-5.5-1.73-8.25-2.62
				C10.55,6.77,9.97,14.76,10.85,20.14z"/>
			<path class="st0" d="M11.3,22.8c0.65,3.9,1.58,6.83,2.63,9.76c0.87,2.45,1.8,4.57,2.69,6.35c0.8-1.33,1.71-2.49,3.28-2.49
				c2.61,0,3.38,3.21,4.91,5.09C23.51,35.13,19.23,24.39,11.3,22.8z"/>
			<path class="st0" d="M7.38,0.11C2.7,0.84,0,5.27,0,11.46c0,14.99,6.94,31.37,12.49,31.37c0.43,0,0.82-0.09,1.16-0.25
				C10.42,36.74,3.71,19.95,7.38,0.11z"/>
		</g>
		<path class="st1" d="M26.59,9.96c-2.08,5.23-4.93,8.96-8.72,11.45c3.79,2.5,6.63,6.23,8.72,11.45c2.08-5.23,4.93-8.96,8.72-11.45
			C31.51,18.92,28.67,15.19,26.59,9.96z"/>
		<path class="st0" d="M28.34,37.34c0.59,1.74,1.03,3.31,1.34,4.57c3.45-2.55,6.98-10.05,8.81-18.73
			C33.66,25.75,30.46,30.28,28.34,37.34z"/>
		<path class="st0" d="M30.98,0c-0.37,0-0.74,0.04-1.12,0.09c-0.32,1.48-0.8,3.39-1.49,5.49c2.2,7.29,5.57,11.88,10.72,14.37
			c0.44-2.8,0.68-5.67,0.68-8.49C39.77,4.67,36.53,0,30.98,0z"/>
	</g>
	<g>
		<g>
			<path class="st0" d="M123.46,9.67v3.77h-11.59v6.58h13.66v3.86h-18.89V0h18.41v3.86h-13.17v5.81H123.46z"/>
			<path class="st0" d="M142.44,0v23.88h-5.35V0H142.44z"/>
			<polygon class="st0" points="98.42,0 91.72,0 80.9,9.85 80.9,0 75.55,0 75.55,23.88 80.9,23.88 80.9,14.03 91.72,23.88 
				98.42,23.88 85.3,11.94 			"/>
		</g>
		<g>
			<path class="st0" d="M45.56,30.39h4.22c1.36,0,2.08,0.08,3.15,0.46c3.05,1.12,3.46,4.25,3.46,5.64c0,1.31-0.34,4.46-3.44,5.64
				c-0.89,0.34-1.89,0.46-3.29,0.46h-4.09V30.39z M47.77,40.62h1.54c1.86,0,4.85,0,4.85-4.13c0-4.13-3.01-4.13-4.79-4.13h-1.61
				V40.62z"/>
			<path class="st0" d="M65.45,35.33v1.93h-4.88v3.36h5.75v1.97h-7.96v-12.2h7.76v1.97h-5.55v2.97H65.45z"/>
			<path class="st0" d="M140.8,30.39v12.2h-2.25v-12.2H140.8z"/>
			<path class="st0" d="M160.14,30.39v12.2h-2.25v-12.2H160.14z"/>
			<path class="st0" d="M106.36,30.39v10.23h4.74v1.97h-6.95v-12.2H106.36z"/>
			<path class="st0" d="M131.69,30.39v10.23h4.74v1.97h-6.95v-12.2H131.69z"/>
			<path class="st0" d="M146.76,30.39l5.6,9.03v-9.03h2.21v12.2h-2.63l-5.6-9.03v9.03h-2.21v-12.2H146.76z"/>
			<path class="st0" d="M71.32,30.39l5.6,9.03v-9.03h2.21v12.2h-2.63l-5.6-9.03v9.03h-2.21v-12.2H71.32z"/>
			<path class="st0" d="M87.06,42.59h-2.21V32.36h-3.6v-1.97h9.41v1.97h-3.6V42.59z"/>
			<path class="st0" d="M126.77,40.08c-0.69,0.38-1.69,0.78-3.08,0.78c-3.22,0-4.6-2.17-4.6-4.37c0-2.4,1.61-4.37,4.45-4.37
				c1.85,0,2.74,0.73,3.24,1.15v-2.38c-1.01-0.5-2.09-0.74-3.24-0.74c-3.69,0-6.65,2.46-6.65,6.37c0,3.38,2.3,6.31,6.65,6.31
				c1.46,0,2.55-0.31,3.24-0.57V40.08z"/>
			<path class="st0" d="M172.42,40.08c-0.69,0.38-1.69,0.78-3.08,0.78c-3.22,0-4.6-2.17-4.6-4.37c0-2.4,1.61-4.37,4.45-4.37
				c1.85,0,2.74,0.73,3.24,1.15v-2.38c-1.01-0.5-2.09-0.74-3.24-0.74c-3.69,0-6.65,2.46-6.65,6.37c0,3.38,2.3,6.31,6.65,6.31
				c1.46,0,2.55-0.31,3.24-0.57V40.08z"/>
			<path class="st0" d="M99.66,42.59h2.44l-4.32-12.2h-2.85l-4.32,12.2h2.44l0.99-3h4.62L99.66,42.59z M94.68,37.66l1.67-5.04
				l1.67,5.04H94.68z"/>
		</g>
	</g>
</g>
</svg>
