<?xml version="1.0" standalone="no"?>
<!DOCTYPE svg PUBLIC "-//W3C//DTD SVG 1.1//EN" "http://www.w3.org/Graphics/SVG/1.1/DTD/svg11.dtd" >
<svg xmlns="http://www.w3.org/2000/svg" xmlns:xlink="http://www.w3.org/1999/xlink" version="1.1">
<metadata></metadata>
<defs>
<font id="watchword_regular_demoregular" horiz-adv-x="1220" >
<font-face units-per-em="2048" ascent="1638" descent="-410" />
<missing-glyph horiz-adv-x="551" />
<glyph unicode="&#xd;" horiz-adv-x="240" />
<glyph horiz-adv-x="240" />
<glyph horiz-adv-x="240" />
<glyph unicode=" "  horiz-adv-x="551" />
<glyph unicode="&#x09;" horiz-adv-x="551" />
<glyph unicode="&#xa0;" horiz-adv-x="551" />
<glyph unicode="!" horiz-adv-x="399" d="M100 93q0 39 27.5 66.5t66.5 27.5q38 0 65.5 -27.5t27.5 -66.5t-27.5 -66t-65.5 -27q-39 0 -66.5 27t-27.5 66zM114 520v996h159v-996h-159z" />
<glyph unicode="&#x22;" horiz-adv-x="667" d="M120 1256v260h159v-260l-30 -220h-99zM388 1256v260h159v-260l-30 -220h-99z" />
<glyph unicode="#" horiz-adv-x="1382" d="M120 405v159h172l76 380h-248v159h280l83 409h161l-82 -409h377l83 409h162l-83 -409h161v-159h-193l-76 -380h269v-159h-301l-81 -405h-162l81 405h-377l-81 -405h-162l81 405h-140zM454 564h377l76 380h-377z" />
<glyph unicode="$" horiz-adv-x="1150" d="M120 419h159q0 -122 87 -209q55 -54 129 -75v588q-71 12 -137 53q-95 57 -148 152q-54 96 -54 205q0 174 123 297q91 91 216 115v165h160v-165q125 -24 216 -115q123 -123 123 -297h-160q0 108 -76 184q-44 44 -103 63v-513q36 -6 71 -18q136 -48 220 -167 q84 -118 84 -263q0 -188 -133 -321q-102 -102 -242 -127v-151h-160v151q-140 25 -242 127q-133 133 -133 321zM316 1133q0 -68 33 -127t91 -95q26 -16 55 -24v493q-59 -19 -103 -63q-76 -76 -76 -184zM655 135q74 21 129 75q87 87 87 209q0 95 -54 171q-55 77 -144 108 q-9 4 -18 6v-569z" />
<glyph unicode="%" horiz-adv-x="1416" d="M120 1178q0 73 18 140q63 232 256 232q194 0 257 -232q18 -67 18 -140t-18 -140q-63 -231 -257 -231q-193 0 -256 231q-18 66 -18 140zM239 0h177l757 1512h-178zM279 1178q0 -51 13 -98q31 -114 102 -114q72 0 103 114q13 46 13 98q0 53 -13 99q-31 113 -103 113 q-71 0 -102 -113q-13 -46 -13 -99zM747 340q0 73 18 140q62 232 256 232t257 -232q17 -66 17 -140h1q0 -73 -18 -140q-63 -231 -257 -231t-256 231q-18 67 -18 140zM906 340q0 -52 13 -98q30 -114 102 -114t103 114q12 46 12 98t-12 99q-31 113 -103 113t-102 -113 q-13 -46 -13 -99z" />
<glyph unicode="&#x26;" horiz-adv-x="1297" d="M145 273q-25 118 22 243q68 181 263 319q-98 115 -130 176q-48 93 -46 208q3 140 101 229q97 89 244 91q152 2 253 -91q98 -92 101 -241q3 -145 -118 -275q-65 -69 -166 -135q132 -152 346 -363q35 82 53 182l156 -28q-27 -152 -88 -271l44 -42q142 -137 183 -180 l-116 -109q-39 41 -177 174l-24 23q-15 -18 -30 -35q-183 -188 -415 -188q-207 0 -336 111q-94 82 -120 202zM301 306q15 -68 68 -115q83 -72 232 -72q165 0 301 140q15 17 30 35q-253 246 -400 418q-164 -111 -216 -252q-31 -81 -15 -154zM413 1216q-2 -112 144 -285l9 -11 q97 61 152 120q78 83 76 164q-1 82 -51 127q-53 50 -142 49q-87 -1 -140 -50q-47 -42 -48 -114z" />
<glyph unicode="'" horiz-adv-x="399" d="M120 1256v260h159v-260l-30 -220h-99z" />
<glyph unicode="(" horiz-adv-x="571" d="M100 570q1 397 182 776q45 94 92 170h182q-67 -101 -136 -260q-161 -335 -161 -686q0 -352 161 -687q72 -164 141 -265h-185q-47 78 -94 175q-181 379 -182 777z" />
<glyph unicode=")" horiz-adv-x="571" d="M10 -382q69 101 141 265q161 335 161 687q0 351 -161 686q-69 159 -136 260h182q47 -76 92 -170q181 -379 182 -776q-1 -398 -182 -777q-47 -97 -94 -175h-185z" />
<glyph unicode="*" horiz-adv-x="1129" d="M120 1136l49 151l316 -102v331h159v-331l315 102l50 -151l-316 -103l195 -268l-129 -94l-195 269l-195 -269l-129 94l195 268z" />
<glyph unicode="+" horiz-adv-x="1309" d="M220 654v160h355v354h159v-354h355v-160h-355v-354h-159v354h-355z" />
<glyph unicode="," horiz-adv-x="399" d="M120 0v159h159v-159l-50 -179h-84l50 179h-75z" />
<glyph unicode="-" horiz-adv-x="763" d="M120 500v160h523v-160h-523z" />
<glyph unicode="." horiz-adv-x="1547" d="M100 -282v1710h1335v-1710h-1335zM135 -242h1264v1640h-1264v-1640zM199 438q18 24 50 24h9q28 -5 28 -40q0 -34 -33 -49q-12 -5 -27 -7v-37h-1q-5 0 -14 3v34h-5l-5 1q0 11 5 19h5q0 41 -6 41q-6 7 -6 11zM211 -108q0 5 11 16h3q8 -18 30 -18q18 0 18 20q0 15 -21 18 q-27 0 -32 12q-4 8 -4 12v8q0 34 42 34q24 -5 24 -21v-1q-1 -2 -12 -9h-3q0 7 -13 8h-1q-13 0 -20 -10v-4q0 -6 31 -6q27 -12 27 -38v-5q0 -28 -22 -38q-5 -3 -10 -3h-9q-23 0 -39 25zM224 435q1 -35 1 -47q1 0 1 -2q29 6 37 17q8 10 8 18q0 18 -15 21h-6q-26 -3 -26 -7z M288 374q0 40 32 53l11 1q23 -4 23 -22v-6q0 -20 -39 -36h-10q0 -11 17 -16q11 0 21 18h4q8 -12 8 -15q-17 -22 -30 -22h-7q-26 0 -30 45zM296 -16h15v9q0 46 5 46l15 -5q-2 -23 -2 -36v-14q13 3 15 3q2 -20 2 -24h-2q-9 -1 -15 -1q3 -63 5 -91q-12 -2 -17 -2v1q-5 61 -5 88 l-2 2h-14v24zM305 385q19 0 33 18v2q-7 2 -9 2q-16 0 -24 -19v-3zM325 911v56h9q0 -72 140 -84h177q66 0 66 -65v-103q0 -83 -103 -83h-158q-131 120 -131 279zM350 -11q17 -5 17 -6v-20q0 -67 12 -67h5q17 19 24 55q5 10 6 38h2q15 -2 15 -6q-3 -42 -3 -59v-10q0 -10 5 -20 q0 -6 -10 -18q-12 12 -12 25h-1q-11 -29 -28 -29h-3q-29 0 -29 93v24zM352 146v4q0 58 45 79l7 2h10q14 0 23 -23q-6 -6 -6 -9h-3q-9 15 -21 15q-17 0 -35 -26q-9 -19 -9 -34v-5q0 -29 24 -35q2 -1 8 -1q31 3 31 20v10q-4 3 -12 3h-10v17q28 0 33 -9q2 -7 2 -9 q-2 -25 -2 -29q0 -11 4 -26q-1 0 -8 -5h-1q-4 0 -6 22q-6 -8 -29 -12h-2q-38 0 -43 51zM353 1088v10q147 270 364 270v-242h-261q-54 0 -103 -38zM357 413q12 2 15 2v-1q0 -4 3 -19h1q10 43 28 43q19 0 28 -49q-1 0 -15 -4q-6 33 -13 33q-17 -9 -20 -75q1 -14 1 -15 q-10 -2 -15 -2q-13 69 -13 87zM409 986v37q3 19 19 19h289v-94q-35 19 -75 19h-214q-19 0 -19 19zM432 347v1q1 3 9 11h1q12 -15 28 -15q14 4 14 16q-4 15 -21 15q-28 0 -28 22v3q0 30 37 30q18 -5 18 -17v-1q0 -2 -10 -8h-1q-4 7 -13 7q-13 0 -16 -11q0 -5 29 -6 q20 -11 20 -34q0 -25 -20 -34l-8 -2h-5q-24 0 -34 23zM437 -63q0 48 34 58h4q14 0 29 -16v1q0 8 3 65q1 0 17 -4q-4 -38 -5 -92q0 -34 10 -69q-11 -10 -12 -10h-1q-3 0 -6 13h-2q0 -8 -21 -16q-33 0 -47 42q-3 12 -3 28zM446 132v15q0 33 26 46q5 2 15 2q20 -4 20 -20 q1 0 1 -2q0 -23 -35 -36q-5 -3 -15 -3v-1q0 -11 17 -17h1q10 0 23 16h3q0 -2 6 -9v-1q-14 -22 -29 -22h-6q-19 0 -27 32zM454 -64v-3q0 -34 30 -40h3q12 0 15 26v3q0 36 -21 48l-6 1h-2q-17 0 -19 -35zM457 150q23 0 39 22q-2 6 -11 6h-3q-19 0 -25 -28zM501 364q0 50 25 65 q2 1 11 3q20 0 33 -32q2 -9 2 -17v-3q0 -36 -35 -53q-5 -1 -9 -1q-27 4 -27 38zM513 172v16l11 1h2v18q0 27 3 27q8 -2 10 -2q-2 -29 -2 -42h2l12 2v-17q-1 0 -14 -2l4 -74l-2 -2h-8q-3 29 -5 75h-13zM516 365q2 -18 12 -18h3q24 7 26 35v3q-6 26 -20 26h-2q-13 0 -18 -32 q-1 -7 -1 -14zM534 22q2 14 12 14q9 0 11 -14v-1q0 -11 -8 -16h-7q-8 5 -8 17zM537 -10h12l6 -1q0 -3 -1 -8q1 -67 4 -109h-18l-1 8q-2 68 -2 110zM566 -76q0 51 30 69q10 2 11 2q25 0 41 -38q2 -11 2 -17v-9q0 -40 -39 -60q-4 -2 -13 -2q-27 0 -32 41v14zM567 538v10 q132 0 187 56h9q61 -56 187 -56v-10q-108 -37 -187 -37h-9q-80 0 -187 37zM575 409q7 2 14 2q3 -17 3 -20h1q7 41 21 41q19 0 36 -89q1 0 1 -7q-8 -7 -12 -7q-15 62 -23 80q-9 -13 -18 -70q-1 0 -5 -10h-7q-7 0 -9 57q-2 14 -2 23zM583 -82q0 -22 15 -25h4q15 0 29 29 q2 4 2 9v9q-7 31 -24 31h-2q-21 0 -24 -53zM592 154v17q6 0 10 2q-3 21 -3 52q3 29 17 29h2q13 0 15 -34v-3l-6 -1h-2q-3 21 -8 21q-6 0 -8 -19q1 -2 1 -4q0 -10 2 -39q5 3 9 3h3v-15l-11 -3q5 -57 5 -69h-11q-4 54 -4 65h-1q-5 -2 -10 -2zM634 193q2 0 11 -3q0 -74 14 -74 q19 12 28 66q1 5 1 11h1q3 0 10 -3q-3 -24 -3 -45v-12q0 -9 5 -19q-5 -7 -5 -11h-2q-7 4 -8 26h-2q-4 -15 -19 -29h-9q-20 0 -20 75v10zM652 348v8q0 30 32 35q11 -1 20 -6v1q-4 25 -17 25q-9 0 -18 -10h-3q-2 1 -8 11v2q12 14 23 14h11q27 -9 27 -45q-1 -21 -1 -35l2 -16 q-9 -8 -13 -8h-1l-2 11q-12 -8 -23 -8h-7q-22 3 -22 21zM654 -16h17q0 34 3 55h1l15 -5q-2 -28 -2 -45v-5q14 3 16 3l1 -14v-10q-16 -1 -16 -2q0 -23 5 -90q-13 -2 -17 -2v1q-5 75 -5 90h-18v24zM667 351q0 -3 10 -6q17 0 25 17q-8 7 -19 7q-16 -3 -16 -15v-3zM709 198v39h4 h6v-9q0 -61 3 -132h-11q-2 65 -2 102zM710 -40q0 33 3 33q12 -4 15 -4q-1 -23 -1 -34v-6q0 -33 12 -44h5q22 18 22 72v10h17v-1q8 -89 8 -103v-10q0 -44 -28 -60q-10 -4 -16 -4q-22 0 -29 20q-2 4 -2 9v9q0 15 4 15l14 -7l-1 -8v-4q0 -8 11 -10h4q20 0 25 33q1 4 1 12v20 l-1 13h-1q-10 -30 -29 -30h-2q-23 0 -30 50q-1 8 -1 20v9zM725 462v3v6h3l11 -1v-18q2 -70 2 -126l-7 -2h-6q-3 71 -3 138zM733 232v3q0 2 2 2h1h8v-30q0 -32 3 -111h-11q-3 66 -3 136zM782 411v11q0 25 8 44h4q0 -2 7 -12q-4 -18 -4 -30v-18q0 -44 15 -58h1q21 0 35 117h2 q12 -4 13 -4q-6 -58 -6 -86q0 -31 12 -31q2 -16 2 -20h-8q-13 0 -20 32h-1q-11 -28 -27 -28h-5q-20 0 -27 61q-1 4 -1 22zM789 154v17l11 1q-3 46 -3 52q0 30 19 30q12 0 16 -37l-8 -1h-2v1q0 15 -7 20q-8 -5 -8 -15q0 -8 3 -46v-1q5 3 10 3h1l1 -8v-7q-1 0 -12 -3l2 -3 q0 -12 4 -66h-11q0 6 -4 65q-9 -2 -12 -2zM800 -5h5q11 0 11 -3v-2q9 5 19 5q25 0 33 -44q0 -11 1 -14q-3 -52 -31 -64l-8 -1h-10l1 -8q0 -6 1 -40h-17q-5 132 -5 171zM800 725v317h383l9 -94v-18q0 -185 -131 -298h-167q-94 12 -94 93zM800 1126v242h10q132 0 279 -149 q56 -68 56 -93h-345zM816 -37q0 -3 3 -67l7 -1q22 0 26 42q-3 34 -17 34h-1q-10 0 -18 -8zM833 133v4q0 41 19 57q8 5 14 5q23 0 34 -38v-14q0 -34 -34 -50l-7 -1q-16 0 -24 20q-2 11 -2 17zM843 137q2 -23 15 -23h1q16 0 27 25q3 8 3 11q-6 31 -22 31h-4q-15 0 -20 -44z M871 347v1q8 11 10 11h1q12 -15 27 -15q14 4 14 16t-16 15q-25 0 -30 11q-2 11 -2 14q0 30 37 30q13 0 20 -18v-1q-11 -7 -14 -7q0 6 -11 7q-12 0 -17 -10v-1q0 -5 29 -6q19 -9 19 -36q0 -26 -24 -34h-8q-23 0 -35 23zM873 -81q0 54 30 74q11 2 12 2q23 0 39 -35 q4 -13 4 -24q0 -43 -38 -65q-8 -2 -14 -2q-22 0 -31 27q-2 12 -2 23zM890 -82v-5q0 -17 15 -20h2q16 0 30 26q4 8 4 18q-6 34 -28 34q-19 0 -23 -53zM905 176l8 2h2q3 -16 3 -33h1q9 54 24 54t34 -94h-1q-5 -4 -9 -4q-15 67 -24 79q-7 -7 -23 -79l-2 -1h-4q-6 0 -9 76z M941 373q0 40 30 54l12 1q24 -4 24 -23q0 -29 -42 -41h-7v-2q7 -14 16 -14q10 0 23 18h1q1 0 9 -12q0 -9 -21 -22q-4 -3 -9 -3h-7q-24 0 -29 44zM958 385h3q17 0 31 19q-6 3 -9 3h-3q-16 0 -22 -21v-1zM966 -113q1 17 11 17q9 0 12 -14v-5q-3 -13 -12 -13t-11 15zM979 172 l1 8v8l11 1h1v1q0 21 2 44q3 0 12 -2q-3 -13 -3 -29v-13h3l12 2v-17h-3l-12 -2l5 -74l-5 -2h-6q-3 62 -3 75h-15zM996 -84q0 34 19 64q12 12 18 12h8q6 0 15 -9q11 -12 11 -18q-11 -13 -12 -13q-11 15 -18 15h-2q-12 -5 -18 -28l-4 -21q0 -22 14 -24h3q11 0 34 16h1 q6 -20 6 -22q-25 -18 -47 -18q-23 0 -28 46zM1044 367v9q0 50 40 88q8 2 10 2h6q12 0 28 -28q12 -22 12 -44v-9q0 -37 -40 -58q-7 -3 -14 -3h-7q-30 0 -35 43zM1058 117v8q3 32 30 32q12 0 21 -8v3q0 25 -18 29h-3q-6 0 -17 -8h-1q-1 0 -6 7v2q10 13 19 13h11q16 0 24 -28 q2 -16 3 -18q-1 -6 -3 -26q2 -4 2 -23l-6 -4h-3l-3 12q-10 -11 -25 -11h-4q-21 3 -21 20zM1059 368q0 -21 25 -24q22 0 37 27q5 8 5 18v3q0 27 -26 53q-3 0 -3 2q-17 0 -35 -50q-3 -11 -3 -21v-8zM1068 122q3 -8 11 -8h6q14 0 22 18q-9 8 -17 8h-2q-20 -3 -20 -18zM1076 -76 q0 51 30 69q10 2 11 2q24 0 39 -35q4 -8 4 -19v-8q0 -43 -39 -62q-4 -2 -13 -2q-28 0 -32 41v14zM1092 -82q0 -25 17 -25h3q14 0 29 30q2 6 2 10v7q-8 31 -25 31h-1q-20 0 -25 -53zM1126 172v16l11 1h1l2 45q3 0 12 -2q-2 -18 -2 -34v-8h2l12 2v-8v-9q-1 0 -14 -2v-6 q0 -15 4 -68l-2 -2h-9l-4 75h-13zM1144 409q6 2 15 2q1 -19 1 -22h1q7 43 24 43q16 0 35 -96q-9 -7 -13 -7q-15 66 -24 80q-6 -12 -19 -74q-3 -6 -4 -6h-6q-7 0 -10 80zM1164 -23q13 6 17 6q2 -8 4 -31h2q9 43 24 43q17 0 27 -58h1q8 58 27 58h1q24 0 40 -118h-2 q-11 -5 -13 -5h-1q-19 98 -25 98q-10 -22 -17 -82q-3 -10 -10 -10q-8 0 -11 15q-13 76 -19 76q-16 -58 -16 -93q-10 -4 -17 -4v1zM1223 453q1 12 1 18h1l14 -1q-1 -9 -1 -13q0 -55 3 -131l-11 -2h-4q-2 58 -3 129zM1247 383v17q0 10 2 29q13 -2 14 -2q-1 -18 -1 -26v-9 q2 -35 13 -35h1q18 13 18 67h15v-3q7 -78 7 -88q0 -46 -30 -56h-5h-5q-18 0 -23 19q-1 5 -1 10q0 15 3 15h1q9 -6 12 -6l-1 -9q0 -8 9 -9h2q23 0 23 42q0 5 -1 21h-1q-8 -24 -26 -24h-1q-19 0 -25 47z" />
<glyph unicode="/" horiz-adv-x="720" d="M10 -396l534 1912h166l-535 -1912h-165z" />
<glyph unicode="0" horiz-adv-x="1356" d="M120 753q0 163 41 311q58 214 184 339q138 138 333 138t333 -138q126 -125 184 -339q41 -148 41 -311q0 -162 -41 -310q-58 -214 -184 -339q-138 -139 -333 -139t-333 139q-126 125 -184 339q-41 148 -41 310zM279 753q0 -143 35 -268q44 -162 133 -256q97 -104 231 -104 t231 104q89 94 133 256q35 125 35 268q0 144 -35 269q-44 162 -133 256q-97 104 -231 104t-231 -104q-89 -94 -133 -256q-35 -125 -35 -269z" />
<glyph unicode="1" horiz-adv-x="767" d="M74 1357v159h395v-1516h-160v1357h-235z" />
<glyph unicode="2" horiz-adv-x="1111" d="M120 0v157q0 237 131 385q78 88 284 202q150 83 205 140q92 93 92 231q0 114 -81 195t-195 81q-115 0 -196 -81t-81 -195h-159q0 180 128 308q127 127 308 127q180 0 308 -127q127 -128 127 -308q0 -200 -117 -327q-71 -77 -262 -183q-164 -91 -227 -158 q-105 -113 -105 -287h695v-160h-855z" />
<glyph unicode="3" horiz-adv-x="1146" d="M120 415h159q1 -120 86 -205q87 -86 208 -86q122 0 208 86t86 207q0 122 -86 208q-81 81 -194 86h-106v159h105q99 5 169 75q76 76 76 183t-76 182q-75 76 -182 76t-182 -76q-75 -74 -76 -180h-159q1 172 122 293q122 122 295 122t295 -122t122 -295t-122 -295 q-20 -21 -44 -39q38 -25 70 -56q132 -133 132 -321q0 -187 -132 -320q-133 -133 -321 -133t-320 133q-132 132 -133 318z" />
<glyph unicode="4" horiz-adv-x="1187" d="M50 285l816 1309v-1149h271v-160h-271v-285h-159v285h-657zM327 445h380v606z" />
<glyph unicode="5" horiz-adv-x="1195" d="M120 196l132 89q51 -76 131 -119q79 -42 171 -42q150 0 256 106t106 256t-106 256t-256 106q-73 0 -139 -28q-66 -27 -117 -78l-136 61l44 713h751v-159h-602l-24 -400q12 6 23 10q96 40 200 40q216 0 368 -153q153 -152 153 -368t-153 -369q-152 -153 -368 -153 q-131 0 -246 62t-188 170z" />
<glyph unicode="6" horiz-adv-x="1287" d="M120 487q0 158 87 289l447 740h185l-312 -518q57 13 116 13q217 0 371 -153q153 -154 153 -371q0 -216 -153 -370q-154 -153 -371 -153q-216 0 -370 153q-153 154 -153 370zM279 487q0 -150 107 -257t257 -107q151 0 258 107q106 107 106 257q0 151 -106 258 q-107 106 -258 106q-150 0 -257 -106q-107 -107 -107 -258z" />
<glyph unicode="7" horiz-adv-x="1242" d="M120 1356v160h1036l-638 -1516h-173l571 1356h-796z" />
<glyph unicode="8" horiz-adv-x="1146" d="M120 417q0 188 133 321q32 31 69 56q-23 18 -44 39q-122 122 -122 295t122 295t295 122t295 -122t122 -295t-122 -295q-20 -21 -44 -39q38 -25 70 -56q132 -133 132 -321q0 -187 -132 -320q-133 -133 -321 -133t-320 133q-133 133 -133 320zM279 417q0 -121 86 -207 q87 -86 208 -86q122 0 208 86t86 207q0 122 -86 208q-81 81 -194 86h-27q-114 -5 -194 -86q-87 -86 -87 -208zM315 1128q0 -107 76 -183q70 -70 169 -75h13h13q99 5 169 75q76 76 76 183t-76 182q-75 76 -182 76t-182 -76q-76 -75 -76 -182z" />
<glyph unicode="9" horiz-adv-x="1301" d="M120 1019q0 219 156 374q155 155 375 155q219 0 375 -155q155 -155 155 -374q0 -170 -99 -308l-436 -711h-187l308 502q-57 -12 -116 -12q-220 0 -375 155q-156 155 -156 374zM279 1019q0 -154 109 -262t263 -108t263 108q108 108 108 262q0 153 -108 261 q-109 108 -263 108t-263 -108t-109 -261z" />
<glyph unicode=":" horiz-adv-x="388" d="M119 0v159h159v-159h-159zM119 770v159h159v-159h-159z" />
<glyph unicode=";" horiz-adv-x="388" d="M119 770v159h159v-159h-159zM120 0v159h159v-159l-50 -179h-84l50 179h-75z" />
<glyph unicode="&#x3c;" horiz-adv-x="829" d="M87 687v159l685 326v-176l-482 -229l482 -230v-176z" />
<glyph unicode="=" horiz-adv-x="944" d="M120 470v160h704v-160h-704zM120 870v160h704v-160h-704z" />
<glyph unicode="&#x3e;" horiz-adv-x="829" d="M77 361v176l482 230l-482 229v176l685 -326v-159z" />
<glyph unicode="?" horiz-adv-x="1080" d="M120 1128q0 174 123 297t297 123t297 -123t123 -297q0 -198 -94 -306q-56 -64 -198 -130q-67 -32 -92 -53q-40 -36 -40 -89v-196h-159v196q0 121 68 190q41 42 156 96q97 45 135 88q65 72 65 204q0 108 -77 184q-76 77 -184 77t-184 -77q-77 -76 -77 -184h-159zM377 0 v159h159v-159h-159z" />
<glyph unicode="@" horiz-adv-x="2136" d="M100 577q0 401 284 685q283 283 684 283q10 0 37 -1q388 -13 654 -270q277 -267 277 -664q0 -9 -1 -35q-7 -207 -110 -384q-104 -179 -268 -261q-129 -63 -226 -47q-47 9 -83 34q-35 26 -54 65q-28 56 -17 123l7 42q-128 -107 -286 -107q-17 0 -38 2q-171 17 -280 160 q-104 137 -104 329q0 28 4 63q21 220 165 376q150 162 344 162q17 0 38 -2q167 -17 274 -153q8 56 16 116l157 -21q-38 -279 -66 -481q0 -6 -1 -12q-3 -35 -10 -69q-49 -356 -62 -432q-3 -16 2 -26q1 -3 5 -6q5 -4 15 -5q47 -9 129 32q122 60 202 198q83 143 88 309 q1 8 1 30q0 330 -228 549q-223 215 -549 226q-9 1 -32 1q-335 0 -572 -237q-236 -237 -236 -572q0 -333 240 -560q244 -231 621 -248q236 -11 450 61q206 70 311 190l120 -104q-134 -153 -380 -237q-242 -81 -508 -69q-436 20 -723 291h-1q-290 275 -290 676zM736 531 q0 -138 71 -233q67 -88 168 -98h23q125 0 227 110q94 102 118 242q3 18 6 37v5q2 21 2 47q0 139 -71 233q-67 88 -168 98q-9 1 -23 1q-125 0 -227 -111q-108 -117 -124 -283q-2 -22 -2 -48z" />
<glyph unicode="A" horiz-adv-x="1337" d="M10 0l660 1548l657 -1548h-172l-164 385h-645l-164 -385h-172zM410 535h517l-258 607z" />
<glyph unicode="B" horiz-adv-x="1190" d="M120 0v1516h581q173 0 296 -123t123 -296t-123 -296q-24 -23 -51 -43q27 -20 51 -43q123 -123 123 -296t-123 -296t-296 -123h-581zM279 160h422q107 0 183 76t76 183t-76 183t-183 76h-422v-518zM279 838h422q107 0 183 76t76 183t-76 183t-183 76h-422v-518z" />
<glyph unicode="C" horiz-adv-x="1439" d="M100 757q0 330 226 561t552 231q138 0 264 -48q117 -44 222 -131l-101 -123q-85 70 -178 105q-97 38 -207 38q-259 0 -438 -183q-181 -184 -181 -450t181 -450q179 -183 438 -183q110 0 207 38q93 35 178 105l101 -124q-105 -86 -222 -130q-126 -48 -264 -48 q-326 0 -552 230q-226 231 -226 562z" />
<glyph unicode="D" horiz-adv-x="1338" d="M120 0v1516h385q313 0 535 -223q223 -222 223 -535t-223 -535q-222 -223 -535 -223h-385zM279 160h226q247 0 423 176q175 175 175 422t-175 423q-176 175 -423 175h-226v-1196z" />
<glyph unicode="E" horiz-adv-x="1014" d="M120 0v1516h835v-159h-676v-519h554v-160h-554v-518h676v-160h-835z" />
<glyph unicode="F" horiz-adv-x="1014" d="M120 0v1516h860v-159h-701v-520h575v-160h-575v-677h-159z" />
<glyph unicode="G" horiz-adv-x="1677" d="M120 756q0 341 202 566q201 224 516 224q164 0 313 -64q149 -65 262 -184l-116 -109q-89 95 -209 146q-119 52 -250 52q-244 0 -398 -172q-161 -179 -161 -459q0 -281 161 -460q154 -172 398 -172q245 0 399 172q135 150 157 380h-556v159h719v-79q0 -342 -202 -567 q-201 -224 -517 -224q-315 0 -516 224q-202 225 -202 567z" />
<glyph unicode="H" horiz-adv-x="1442" d="M120 0v1516h159v-678h883v678h160v-1516h-160v678h-883v-678h-159z" />
<glyph unicode="I" horiz-adv-x="559" d="M200 0v1516h159v-1516h-159z" />
<glyph unicode="J" horiz-adv-x="1105" d="M20 478h159q0 -147 94 -250q93 -104 230 -104q136 0 229 104q94 103 94 250v1038h159v-1038q0 -213 -140 -363t-342 -150q-203 0 -343 150t-140 363z" />
<glyph unicode="K" horiz-adv-x="1272" d="M120 1v1515h159v-764l765 764h226l-694 -694l656 -822h-204l-566 709l-183 -183v-525h-159z" />
<glyph unicode="L" horiz-adv-x="1183" d="M120 0v1516h159v-1357h867v-159h-1026z" />
<glyph unicode="M" horiz-adv-x="1878" d="M120 0v1548l819 -1232l819 1232v-1548h-159v1021l-660 -992l-660 992v-1021h-159z" />
<glyph unicode="N" horiz-adv-x="1462" d="M120 0v1531l1063 -1156v1141h159v-1550l-1063 1156v-1122h-159z" />
<glyph unicode="O" horiz-adv-x="1698" d="M80 756q0 331 223 561q223 229 546 229t546 -229q223 -230 223 -561q0 -332 -223 -562q-223 -229 -546 -229t-546 229q-223 230 -223 562zM239 756q0 -268 178 -451q175 -181 432 -181q256 0 432 181q177 183 177 451q0 267 -177 450q-176 181 -432 181q-257 0 -432 -181 q-178 -183 -178 -450z" />
<glyph unicode="P" horiz-adv-x="1106" d="M120 0v1516h437q203 0 348 -145t145 -348q0 -204 -145 -349t-348 -145h-277v-529h-160zM280 688h277q137 0 236 99q98 98 98 236q0 137 -98 236q-99 98 -236 98h-277v-669z" />
<glyph unicode="Q" horiz-adv-x="1698" d="M80 762q0 331 223 561t546 230t546 -230t223 -561t-223 -561q-21 -22 -45 -43l206 -279l-129 -95l-207 283q-171 -96 -371 -96q-323 0 -546 230t-223 561zM239 762q0 -267 178 -450q175 -181 432 -181q148 0 276 65l-175 238l128 94l178 -241q13 12 25 25 q177 183 177 450t-177 450q-176 181 -432 181q-257 0 -432 -181q-178 -183 -178 -450z" />
<glyph unicode="R" horiz-adv-x="1240" d="M120 0v1516h567q204 0 349 -145q145 -146 145 -350t-145 -349q-97 -97 -228 -130l353 -542h-189l-344 527h-349v-527h-159zM279 686h408q138 0 236 99q99 98 99 236t-99 237q-98 98 -236 98h-408v-670z" />
<glyph unicode="S" horiz-adv-x="1066" d="M75 309l156 33q18 -87 103 -151q89 -66 194 -66q122 0 215 86q88 82 88 189q0 138 -92 203q-55 40 -202 74q-208 50 -286 110q-131 101 -131 323q0 181 128 308q127 127 308 127q122 0 227 -64t161 -174l-142 -72q-36 70 -102 110q-66 41 -144 41q-115 0 -195 -81 q-81 -81 -81 -195q0 -138 92 -203q55 -39 202 -74q208 -50 286 -110q131 -101 131 -323q0 -176 -140 -305q-139 -130 -323 -130q-158 0 -289 98q-133 100 -164 246z" />
<glyph unicode="T" horiz-adv-x="1001" d="M20 1356v160h961v-160h-401v-1356h-159v1356h-401z" />
<glyph unicode="U" horiz-adv-x="1360" d="M120 525v991h159v-991q0 -165 118 -283q118 -117 283 -117t282 117q118 118 118 283v991h160v-991q0 -231 -165 -396q-164 -164 -395 -164t-396 164q-164 165 -164 396z" />
<glyph unicode="V" horiz-adv-x="1425" d="M20 1516h174l518 -1161l518 1161h175l-693 -1551z" />
<glyph unicode="W" horiz-adv-x="2094" d="M20 1516h167l363 -1106l498 1105l495 -1105l363 1106h168l-510 -1551l-517 1156l-519 -1156z" />
<glyph unicode="X" horiz-adv-x="1430" d="M10 1516h203l502 -634l501 634h204l-604 -762l597 -754h-203l-495 626l-495 -626h-204l598 754z" />
<glyph unicode="Y" horiz-adv-x="1400" d="M10 1516h185l506 -840l505 840h184l-610 -1016v-500h-159v500z" />
<glyph unicode="Z" horiz-adv-x="1249" d="M20 0l921 1356h-846v160h1134l-921 -1357h896v-159h-1184z" />
<glyph unicode="[" horiz-adv-x="776" d="M120 -361v1877h536v-159h-377v-1559h377v-159h-536z" />
<glyph unicode="\" horiz-adv-x="609" d="M10 1516l424 -1516h165l-424 1516h-165z" />
<glyph unicode="]" horiz-adv-x="776" d="M120 -202h376v1559h-376v159h536v-1877h-536v159z" />
<glyph unicode="^" horiz-adv-x="1155" d="M143 572l434 943l435 -943h-176l-259 562l-258 -562h-176z" />
<glyph unicode="_" horiz-adv-x="903" d="M-10 0h923v-160h-923v160z" />
<glyph unicode="`" horiz-adv-x="601" d="M53 1356h198l161 -270h-157z" />
<glyph unicode="a" d="M75 479q0 212 150 362t363 150q236 0 353 -194v160h159v-957h-159v161q-117 -195 -353 -195q-213 0 -363 150t-150 363zM234 479q0 -147 104 -250q103 -104 250 -104q146 0 249 104q103 102 104 247v5q-1 145 -104 247q-103 104 -249 104q-147 0 -250 -104 q-104 -103 -104 -249z" />
<glyph unicode="b" d="M120 0v1516h159v-719q118 194 354 194q212 0 362 -150t150 -362q0 -213 -150 -363t-362 -150q-236 0 -354 195v-161h-159zM279 476q1 -145 104 -247q103 -104 250 -104q146 0 249 104q104 103 104 250q0 146 -104 249q-103 104 -249 104q-147 0 -250 -104 q-103 -102 -104 -247v-5z" />
<glyph unicode="c" horiz-adv-x="1101" d="M75 476q0 212 149 361q150 150 361 150q136 0 254 -68q118 -67 187 -185l-137 -81q-48 81 -129 128q-81 46 -175 46q-145 0 -248 -103q-103 -102 -103 -248q0 -145 103 -248t248 -103q94 0 175 47q81 46 129 127l137 -80q-69 -118 -187 -186q-118 -67 -254 -67 q-211 0 -361 149q-149 150 -149 361z" />
<glyph unicode="d" d="M75 479q0 212 150 362t363 150q236 0 353 -194v719h159v-1516h-159v161q-117 -195 -353 -195q-213 0 -363 150t-150 363zM234 479q0 -147 104 -250q103 -104 250 -104q146 0 249 104q103 102 104 247v5q-1 145 -104 247q-103 104 -249 104q-147 0 -250 -104 q-104 -103 -104 -249z" />
<glyph unicode="e" horiz-adv-x="1171" d="M75 475q0 212 149 361q150 150 361 150q212 0 361 -150q150 -149 150 -361v-75h-852q22 -106 93 -179q103 -107 283 -107q106 0 179 41q74 38 126 107l124 -95q-73 -96 -180 -149t-249 -53q-246 0 -396 145q-149 154 -149 365zM244 553h683q-22 99 -94 170 q-102 103 -248 103q-145 0 -248 -103q-71 -71 -93 -170z" />
<glyph unicode="f" horiz-adv-x="679" d="M120 0v965q0 338 116 466q108 119 376 119v-160q-198 0 -258 -66q-75 -82 -75 -359v-8h334v-160h-334v-797h-159z" />
<glyph unicode="g" d="M75 478q0 213 150 363t363 150q236 0 353 -195v161h159v-927q0 -225 -159 -384t-384 -159q-146 0 -272 73q-127 74 -199 201l138 79q51 -90 141 -142q88 -51 192 -51q159 0 272 112q112 112 112 271v131q-117 -195 -353 -195q-213 0 -363 150t-150 362zM234 478 q0 -146 104 -249q103 -104 250 -104q146 0 249 104q104 103 104 249q0 147 -104 250q-103 104 -249 104q-147 0 -250 -104q-104 -103 -104 -250z" />
<glyph unicode="h" horiz-adv-x="1170" d="M120 0v1516h159v-716q104 197 306 197q192 0 328 -137q137 -136 137 -328v-532h-160v532q0 126 -90 215q-89 90 -215 90t-216 -90q-88 -88 -90 -213v-534h-159z" />
<glyph unicode="i" horiz-adv-x="477" d="M140 1417q0 41 29 70t69 29q41 0 70 -29t29 -70q0 -40 -29 -69t-70 -29q-40 0 -69 29t-29 69zM159 0v957h159v-957h-159z" />
<glyph unicode="j" horiz-adv-x="563" d="M-119 -347q198 0 258 66q74 81 74 352v7v880h159l1 -880q0 -338 -116 -466q-108 -119 -376 -119v160zM196 1418q0 41 29 69q29 29 69 29q41 0 70 -29q29 -28 29 -69t-29 -70t-70 -29q-40 0 -69 29t-29 70z" />
<glyph unicode="k" horiz-adv-x="1046" d="M120 0v1516h159v-1004l500 445h240l-513 -457l528 -500h-230l-525 496v-496h-159z" />
<glyph unicode="l" horiz-adv-x="559" d="M200 0v1516h159v-1516h-159z" />
<glyph unicode="m" horiz-adv-x="1940" d="M120 0v957h159v-175q97 210 306 210q192 0 328 -136q32 -32 57 -69q25 37 57 69q136 136 328 136t329 -136q136 -137 136 -329v-527h-159v527q0 126 -90 216t-216 90t-215 -90q-90 -90 -90 -216v-527h-160v527q0 126 -90 216q-89 90 -215 90t-216 -90q-88 -89 -90 -213 v-530h-159z" />
<glyph unicode="n" horiz-adv-x="1170" d="M120 0v957h159v-172q101 207 306 207q192 0 328 -137q137 -136 137 -328v-527h-160v527q0 126 -90 215q-89 90 -215 90t-216 -90q-88 -88 -90 -213v-529h-159z" />
<glyph unicode="o" horiz-adv-x="1175" d="M75 478q0 212 150 362t363 150q212 0 362 -150t150 -362q0 -213 -150 -363t-362 -150q-213 0 -363 150t-150 363zM234 478q0 -147 104 -250q103 -104 250 -104q146 0 249 104q104 103 104 250q0 146 -104 249q-103 104 -249 104q-147 0 -250 -104q-104 -103 -104 -249z " />
<glyph unicode="p" d="M120 -558v1515h159v-160q118 194 354 194q212 0 362 -150t150 -363q0 -212 -150 -362t-362 -150q-236 0 -354 194v-718h-159zM279 476q1 -145 104 -247q103 -104 250 -104q146 0 249 104q104 103 104 249q0 147 -104 250q-103 104 -249 104q-147 0 -250 -104 q-103 -102 -104 -247v-5z" />
<glyph unicode="q" d="M75 478q0 213 150 363t363 150q236 0 353 -194v160h159v-1515h-159v718q-117 -194 -353 -194q-213 0 -363 150t-150 362zM234 478q0 -146 104 -249q103 -104 250 -104q146 0 249 104q103 102 104 247v5q-1 145 -104 247q-103 104 -249 104q-147 0 -250 -104 q-104 -103 -104 -250z" />
<glyph unicode="r" horiz-adv-x="987" d="M120 0v957h159v-122q87 157 241 157q190 0 297 -128q103 -124 103 -337h-159q0 156 -66 235q-58 71 -175 71q-116 0 -175 -71q-65 -78 -66 -230v-532h-159z" />
<glyph unicode="s" horiz-adv-x="939" d="M75 194l153 44q11 -40 73 -74q74 -40 164 -40q103 0 180 52q60 41 60 86q0 66 -72 99q-44 20 -159 40q-181 31 -249 72q-114 69 -114 224q0 130 120 218q108 79 257 79q100 0 187 -39q92 -41 143 -115l-131 -90q-25 37 -77 60q-55 25 -122 25q-98 0 -163 -48 q-54 -40 -54 -90q0 -66 72 -99q43 -20 158 -40q182 -32 250 -73q113 -68 113 -223q0 -129 -130 -218q-118 -79 -269 -79q-130 0 -240 60q-120 65 -150 169z" />
<glyph unicode="t" horiz-adv-x="586" d="M41 799v158h188v383l148 46v-429h169v-158h-169v-799h-159v799h-177z" />
<glyph unicode="u" horiz-adv-x="1139" d="M120 432v525h159v-525q0 -127 87 -217q85 -89 204 -89t204 89q85 88 86 214v528h159v-989h-159v172q-104 -173 -290 -173q-187 0 -319 138q-131 136 -131 327z" />
<glyph unicode="v" horiz-adv-x="912" d="M14 957h174l268 -604l268 604h174l-442 -997z" />
<glyph unicode="w" horiz-adv-x="1588" d="M20 957h175l246 -614l353 658l353 -658l246 614h175l-399 -997l-375 698l-375 -698z" />
<glyph unicode="x" horiz-adv-x="1016" d="M10 0l395 479l-395 478h206l292 -353l292 353h206l-395 -478l395 -479h-206l-292 354l-292 -354h-206z" />
<glyph unicode="y" horiz-adv-x="1072" d="M10 957h175l351 -765l352 765h174l-695 -1514h-175l257 559z" />
<glyph unicode="z" horiz-adv-x="1039" d="M35 0l608 798h-564v160h897l-607 -798h590v-160h-924z" />
<glyph unicode="{" horiz-adv-x="612" d="M120 597q34 16 58 34q22 16 34 32v1q12 16 22 42q11 29 17 69q5 26 7 93q2 265 2 387q0 64 9 110q12 59 42 91q31 35 83 49q41 11 138 11v-159q-76 0 -96 -6q-8 -2 -7 -1q-1 0 -4 -16q-5 -28 -5 -79q0 -109 -3 -392q-3 -78 -9 -114q-9 -54 -25 -99q-18 -47 -44 -81 q-17 -23 -39 -44q40 -37 66 -88q28 -53 41 -135q13 -76 13 -176v-336q1 -45 2 -59q3 -20 7 -30l1 -3q-5 2 8 -1q20 -4 94 -4v-160q-90 0 -127 8q-47 10 -76 35h-1q-29 24 -46 63q-13 32 -18 73q-2 19 -3 76q-1 69 -1 338q0 90 -10 151q-9 56 -24 87q-15 28 -40 50 q-26 22 -62 37z" />
<glyph unicode="|" horiz-adv-x="559" d="M200 -400v1916h159v-1916h-159z" />
<glyph unicode="}" horiz-adv-x="612" d="M120 -307q74 0 93 4h1q13 3 8 1l1 3q4 10 7 30q1 14 2 59v336q0 100 12 176q13 82 41 135q27 51 67 88q-23 21 -39 44q-26 34 -44 81q-16 45 -26 99q-5 36 -8 114q-3 283 -3 392q0 51 -5 79l-4 16q1 -1 -7 1q-20 6 -96 6v159q97 0 137 -11q53 -14 84 -49q30 -32 41 -91 q10 -46 10 -110q0 -122 2 -387q2 -67 6 -93q7 -40 18 -69q9 -26 22 -42v-1q12 -16 34 -32q24 -18 58 -34l-4 -146q-37 -15 -62 -37t-40 -50q-16 -31 -25 -87q-9 -61 -9 -151q0 -269 -1 -338q-1 -57 -3 -76q-5 -41 -19 -73q-16 -39 -46 -63q-29 -25 -77 -35q-37 -8 -126 -8 v160z" />
<glyph unicode="~" horiz-adv-x="1289" d="M82 719q19 130 114 212q102 74 239 74q105 0 271 -71q111 -46 168 -48q144 -2 179 120h180q-89 -285 -346 -285q-85 0 -242 67q-136 58 -210 58q-132 18 -182 -127h-171z" />
<glyph unicode="&#xa1;" horiz-adv-x="399" d="M100 864q0 39 27.5 66t65.5 27q39 0 66.5 -27t27.5 -66t-27.5 -66.5t-66.5 -27.5q-38 0 -65.5 27.5t-27.5 66.5zM114 437h159v-996h-159v996z" />
<glyph unicode="&#xa2;" horiz-adv-x="1191" d="M120 476q0 212 149 361q150 150 361 150q136 0 254 -68q118 -67 187 -185l-137 -81q-48 81 -129 128q-81 46 -175 46q-145 0 -248 -103q-103 -102 -103 -248q0 -145 103 -248t248 -103q94 0 175 47q81 46 129 127l137 -80q-69 -118 -187 -186q-118 -67 -254 -67 q-211 0 -361 149q-149 150 -149 361zM323 -340l452 1603h135l-452 -1603h-135z" />
<glyph unicode="&#xa3;" horiz-adv-x="1371" d="M120 99q175 156 242 342q45 124 29 229h-237v159h181q-43 122 -43 239q0 145 65 259q67 118 188 175q92 42 202 42q174 0 302 -118q120 -111 139 -287l-158 -18q-13 118 -89 188q-82 76 -194 76q-76 0 -135 -28q-75 -35 -117 -109q-44 -76 -44 -180q0 -115 54 -239h348 v-159h-302q14 -135 -39 -282q-35 -96 -96 -189q29 4 57 5q121 5 257 -36q163 -50 260 -46q89 4 183 57l78 -139q-127 -72 -255 -77q-123 -4 -312 53v-1q-112 34 -204 30q-127 -5 -272 -77z" />
<glyph unicode="&#xa4;" horiz-adv-x="969" d="M50 321l109 109q-62 93 -62 213q0 119 62 212l-109 109l113 113l109 -109q94 63 213 63t212 -63l109 109l113 -113l-109 -109q62 -93 62 -212q0 -120 -62 -213l109 -109l-113 -112l-109 109q-93 -63 -212 -63t-213 63l-109 -109zM256 643q0 -95 67 -162q67 -66 162 -66 q94 0 161 66q67 67 67 162t-67 162q-67 66 -161 66q-95 0 -162 -66q-67 -67 -67 -162z" />
<glyph unicode="&#xa5;" horiz-adv-x="1334" d="M120 1475l135 85l412 -652l412 652l135 -85l-403 -636h268v-160h-332v-129h332v-159h-332v-391h-160v391h-332v159h332v129h-332v160h267z" />
<glyph unicode="&#xa6;" horiz-adv-x="559" d="M200 267h159v-824h-159v824zM200 688v824h159v-824h-159z" />
<glyph unicode="&#xa7;" horiz-adv-x="1080" d="M120 -79h159q0 -93 74 -160q77 -70 187 -70t187 70q74 67 74 160q0 106 -89 163q-53 34 -194 73q-199 54 -274 109q-124 91 -124 275q0 163 126 278q22 20 46 36q-172 93 -172 305q0 164 126 278q123 112 294 112q172 0 294 -112q126 -114 126 -278h-159q0 94 -74 161 q-77 70 -187 70t-187 -70q-74 -67 -74 -161q0 -103 88 -159q52 -33 193 -72q200 -54 275 -110q125 -92 125 -278q0 -164 -126 -278q-20 -19 -44 -35q170 -93 170 -307q0 -163 -126 -278q-122 -111 -294 -111q-171 0 -294 111q-126 115 -126 278zM279 541q0 -102 86 -158 q53 -34 190 -72q101 5 172 70q74 67 74 160q0 101 -82 157q-53 37 -182 73q-108 -1 -184 -70q-74 -67 -74 -160z" />
<glyph unicode="&#xa8;" horiz-adv-x="795" d="M100 1157q0 41 29 70t69 29q41 0 70 -29t29 -70q0 -40 -29 -69t-70 -29q-40 0 -69 29t-29 69zM498 1157q0 41 29 70t70 29t69 -29q29 -29 29 -70t-29 -69q-28 -29 -69 -29t-70 29q-29 28 -29 69z" />
<glyph unicode="&#xa9;" horiz-adv-x="1744" d="M120 773q0 312 220 532t532 220t532 -220t220 -532t-220 -532t-532 -220t-532 220t-220 532zM233 773q0 -265 187 -452.5t452 -187.5t452.5 187.5t187.5 452.5t-187.5 452t-452.5 187t-452 -187t-187 -452zM464 772q0 186 128 315q126 130 309 130q78 0 148 -27 q66 -25 125 -73l-56 -70q-48 40 -100 59q-55 21 -117 21q-145 0 -246 -102q-101 -104 -101 -253t101 -253q101 -102 246 -102q62 0 117 21q52 20 100 59l56 -69q-59 -49 -125 -74q-70 -27 -148 -27q-183 0 -309 130q-128 130 -128 315z" />
<glyph unicode="&#xaa;" horiz-adv-x="978" d="M90 1127q0 161 114 275q113 113 274 113q135 0 237 -80v82h151v-783h-151v86q-102 -81 -237 -81q-161 0 -274 114q-114 114 -114 274zM249 1127q0 -94 67 -161t162 -67t161 67q67 67 67 161q0 95 -67 162q-66 67 -161 67t-162 -67t-67 -162z" />
<glyph unicode="&#xab;" horiz-adv-x="1100" d="M50 480l330 449h199l-330 -449l331 -450h-199zM516 480l330 449h199l-330 -449l331 -450h-199z" />
<glyph unicode="&#xac;" horiz-adv-x="1094" d="M127 609v158h840v-491l-1 -1h-151v334h-688z" />
<glyph unicode="&#xad;" horiz-adv-x="763" d="M120 500v160h523v-160h-523z" />
<glyph unicode="&#xae;" horiz-adv-x="1744" d="M120 773q0 312 220 532t532 220t532 -220t220 -532t-220 -532t-532 -220t-532 220t-220 532zM233 773q0 -265 187 -452.5t452 -187.5t452.5 187.5t187.5 452.5t-187.5 452t-452.5 187t-452 -187t-187 -452zM627 343v878h271q118 0 202 -84q84 -85 84 -203t-84 -202 q-56 -57 -132 -76l204 -313h-110l-199 305h-144v-305h-92zM720 740h178q80 0 137 57t57 137t-57 137t-137 57h-178v-388z" />
<glyph unicode="&#xaf;" horiz-adv-x="763" d="M120 1177v160h523v-160h-523z" />
<glyph unicode="&#xb0;" horiz-adv-x="1016" d="M120 1127q0 161 114 275q113 113 274 113t274 -113q114 -114 114 -275q0 -160 -114 -274q-113 -114 -274 -114t-274 114q-114 114 -114 274zM279 1127q0 -94 67 -161t162 -67t161 67q67 67 67 161q0 95 -67 162q-66 67 -161 67t-162 -67t-67 -162z" />
<glyph unicode="&#xb1;" horiz-adv-x="969" d="M50 0v159h857v-159h-857zM50 654v160h355v354h159v-354h355v-160h-355v-354h-159v354h-355z" />
<glyph unicode="&#xb2;" horiz-adv-x="935" d="M120 312v137q0 186 102 301q61 69 221 158q107 60 147 100q65 66 65 162q0 77 -55 132t-133 55q-77 0 -132 -55q-56 -55 -56 -132h-159q0 143 102 245t245 102q144 0 246 -102t102 -245q0 -158 -91 -258q-55 -60 -204 -143q-114 -63 -159 -109q-75 -76 -81 -189h518v-159 h-678z" />
<glyph unicode="&#xb3;" horiz-adv-x="910" d="M120 519q38 -102 126 -163q90 -63 198 -63q144 0 245 103q101 101 101 243q0 144 -101 245q-11 12 -24 22q13 11 24 22q101 101 101 244q0 144 -101 245t-245 101q-98 0 -181 -51t-128 -139l143 -71q23 46 68 75q45 27 98 27q77 0 131 -55q55 -55 55 -132q0 -78 -55 -131 q-54 -55 -131 -55h-56v-160h56q77 0 131 -54q55 -55 55 -133q0 -77 -55 -131q-54 -55 -131 -55q-59 0 -106 33q-49 33 -69 88z" />
<glyph unicode="&#xb4;" horiz-adv-x="601" d="M206 1086l162 270h197l-201 -270h-158z" />
<glyph unicode="&#xb5;" horiz-adv-x="1139" d="M120 -558v1515h159v-525q0 -127 86 -217q85 -88 204 -88t204 88q85 89 86 214v528h160v-989h-160v172q-103 -173 -290 -173q-186 0 -278 138q-6 8 -12 17v-680h-159z" />
<glyph unicode="&#xb6;" horiz-adv-x="1068" d="M148 1094q0 159 94 277q99 124 255 137h527v-113h-87v-1707h-123v1707h-138v-1707h-133v989q-209 32 -302 139q-93 117 -93 278z" />
<glyph unicode="&#xb7;" horiz-adv-x="551" d="M120 690v135h135v-135h-135z" />
<glyph unicode="&#xb8;" horiz-adv-x="555" d="M75 -400l47 86q70 -38 140 -38q35 0 57 8q19 8 26 21q6 11 6 26q0 40 -42 53q-25 8 -53 7l-63 -4l51 250h100l-31 -152q136 -13 136 -154q0 -40 -18 -73q-24 -44 -76 -64q-40 -16 -93 -16q-94 0 -187 50z" />
<glyph unicode="&#xb9;" horiz-adv-x="540" d="M120 1358v160h300v-1164h-159v1004h-141z" />
<glyph unicode="&#xba;" horiz-adv-x="1016" d="M120 1127q0 161 114 275q113 113 274 113t274 -113q114 -114 114 -275q0 -160 -114 -274q-113 -114 -274 -114t-274 114q-114 114 -114 274zM279 1127q0 -94 67 -161t162 -67t161 67q67 67 67 161q0 95 -67 162q-66 67 -161 67t-162 -67t-67 -162z" />
<glyph unicode="&#xbb;" horiz-adv-x="1100" d="M50 30l331 450l-330 449h199l330 -449l-331 -450h-199zM516 30l331 450l-330 449h199l330 -449l-331 -450h-199z" />
<glyph unicode="&#xbc;" horiz-adv-x="2110" d="M120 1358v160h300v-1164h-159v1004h-141zM471 -201l721 1863h99l-720 -1863h-100zM1130 232l695 1105v-946h165v-159h-165v-232h-160v232h-535zM1393 391h272v439z" />
<glyph unicode="&#xbd;" horiz-adv-x="1945" d="M120 1358v160h300v-1164h-159v1004h-141zM391 -201l721 1863h99l-720 -1863h-100zM1130 0v137q0 186 102 301q61 69 221 158q107 60 147 100q65 66 65 162q0 77 -55 132t-133 55q-77 0 -132 -55q-56 -55 -56 -132h-159q0 143 102 245t245 102q144 0 246 -102t102 -245 q0 -158 -91 -258q-55 -60 -204 -143q-114 -63 -159 -109q-75 -76 -81 -189h518v-159h-678z" />
<glyph unicode="&#xbe;" horiz-adv-x="2340" d="M120 519q38 -102 126 -163q90 -63 198 -63q144 0 245 103q101 101 101 243q0 144 -101 245q-11 12 -24 22q13 11 24 22q101 101 101 244q0 144 -101 245t-245 101q-98 0 -181 -51t-128 -139l143 -71q23 46 68 75q45 27 98 27q77 0 131 -55q55 -55 55 -132q0 -78 -55 -131 q-54 -55 -131 -55h-56v-160h56q77 0 131 -54q55 -55 55 -133q0 -77 -55 -131q-54 -55 -131 -55q-59 0 -106 33q-49 33 -69 88zM751 -201l721 1863h99l-720 -1863h-100zM1390 232l695 1105v-946h165v-159h-165v-232h-160v232h-535zM1653 391h272v439z" />
<glyph unicode="&#xbf;" horiz-adv-x="1080" d="M120 -171q0 198 94 306q56 64 198 130q67 32 92 53q40 36 40 89v196h159v-196q0 -121 -68 -190q-41 -42 -156 -96q-97 -45 -135 -88q-65 -72 -65 -204q0 -108 77 -184q76 -77 184 -77t184 77q77 76 77 184h159q0 -174 -123 -297t-297 -123t-297 123t-123 297zM544 798 v159h159v-159h-159z" />
<glyph unicode="&#xc0;" horiz-adv-x="1337" d="M10 0l660 1548l657 -1548h-172l-164 385h-645l-164 -385h-172zM410 535h517l-258 607zM429 1915h198l161 -270h-157z" />
<glyph unicode="&#xc1;" horiz-adv-x="1337" d="M10 0l660 1548l657 -1548h-172l-164 385h-645l-164 -385h-172zM410 535h517l-258 607zM549 1645l162 270h197l-201 -270h-158z" />
<glyph unicode="&#xc2;" horiz-adv-x="1337" d="M10 0l660 1548l657 -1548h-172l-164 385h-645l-164 -385h-172zM379 1525l290 396l289 -396h-166l-123 167l-123 -167h-167zM410 535h517l-258 607z" />
<glyph unicode="&#xc3;" horiz-adv-x="1337" d="M10 0l660 1548l657 -1548h-172l-164 385h-645l-164 -385h-172zM345 1611q0 93 46 152q52 67 142 67q67 0 165 -43q64 -28 93 -28v1h1q20 0 28 7q12 12 12 51v1h159v-1q0 -95 -59 -154q-54 -44 -140 -44h-1v1q-62 0 -156 31q-68 29 -102 29q-11 0 -16 -6q-13 -16 -13 -64 h-159zM410 535h517l-258 607z" />
<glyph unicode="&#xc4;" horiz-adv-x="1337" d="M10 0l660 1548l657 -1548h-172l-164 385h-645l-164 -385h-172zM371 1716q0 41 29 70t69 29q41 0 70 -29t29 -70q0 -40 -29 -69t-70 -29q-40 0 -69 29t-29 69zM410 535h517l-258 607zM769 1716q0 41 29 70t70 29t69 -29q29 -29 29 -70t-29 -69q-28 -29 -69 -29t-70 29 q-29 28 -29 69z" />
<glyph unicode="&#xc5;" horiz-adv-x="1337" d="M10 0l660 1548l657 -1548h-172l-164 385h-645l-164 -385h-172zM410 535h517l-258 607zM451 1769q0 92 65 156q64 65 156 65q90 0 155 -65t65 -156q0 -90 -65 -155t-155 -65q-92 0 -156 65q-65 64 -65 155zM579 1769q0 -38 27 -65t66 -27q38 0 65 27t27 65q0 39 -27 66 t-65 27q-39 0 -66 -27t-27 -66z" />
<glyph unicode="&#xc6;" horiz-adv-x="1810" d="M30 0l646 1516h1082v-159h-675v-519h554v-160h-554v-519h675v-159h-834v385h-558l-164 -385h-172zM430 535h494v823h-143z" />
<glyph unicode="&#xc7;" horiz-adv-x="1439" d="M100 757q0 330 226 561t552 231q138 0 264 -48q117 -44 222 -131l-101 -123q-85 70 -178 105q-97 38 -207 38q-259 0 -438 -183q-181 -184 -181 -450t181 -450q179 -183 438 -183q110 0 207 38q93 35 178 105l101 -124q-105 -86 -222 -130q-100 -38 -208 -46l-28 -139 q136 -13 136 -154q0 -40 -18 -73q-24 -44 -76 -64q-40 -16 -93 -16q-94 0 -187 50l47 86q70 -38 130 -38q35 0 57 8q19 8 26 21q6 11 6 26q0 40 -42 53q-25 8 -53 7l-63 -4l48 237q-291 17 -498 228q-226 231 -226 562z" />
<glyph unicode="&#xc8;" horiz-adv-x="1014" d="M120 0v1516h835v-159h-676v-519h554v-160h-554v-518h676v-160h-835zM298 1915h198l161 -270h-157z" />
<glyph unicode="&#xc9;" horiz-adv-x="1014" d="M120 0v1516h835v-159h-676v-519h554v-160h-554v-518h676v-160h-835zM417 1645l162 270h197l-201 -270h-158z" />
<glyph unicode="&#xca;" horiz-adv-x="1014" d="M120 0v1516h835v-159h-676v-519h554v-160h-554v-518h676v-160h-835zM248 1585l290 396l289 -396h-166l-123 167l-123 -167h-167z" />
<glyph unicode="&#xcb;" horiz-adv-x="1014" d="M120 0v1516h835v-159h-676v-519h554v-160h-554v-518h676v-160h-835zM240 1716q0 41 29 70t69 29q41 0 70 -29t29 -70q0 -40 -29 -69t-70 -29q-40 0 -69 29t-29 69zM638 1716q0 41 29 70t70 29t69 -29q29 -29 29 -70t-29 -69q-28 -29 -69 -29t-70 29q-29 28 -29 69z" />
<glyph unicode="&#xcc;" horiz-adv-x="559" d="M40 1915h198l161 -270h-157zM200 0v1516h159v-1516h-159z" />
<glyph unicode="&#xcd;" horiz-adv-x="559" d="M160 1645l162 270h197l-201 -270h-158zM200 0v1516h159v-1516h-159z" />
<glyph unicode="&#xce;" horiz-adv-x="559" d="M-10 1585l290 396l289 -396h-166l-123 167l-123 -167h-167zM200 0v1516h159v-1516h-159z" />
<glyph unicode="&#xcf;" horiz-adv-x="559" d="M-18 1716q0 41 29 70t69 29q41 0 70 -29t29 -70q0 -40 -29 -69t-70 -29q-40 0 -69 29t-29 69zM200 0v1516h159v-1516h-159zM380 1716q0 41 29 70t70 29t69 -29q29 -29 29 -70t-29 -69q-28 -29 -69 -29t-70 29q-29 28 -29 69z" />
<glyph unicode="&#xd0;" horiz-adv-x="1428" d="M10 678v160h200v678h385q313 0 535 -223q223 -222 223 -535t-223 -535q-222 -223 -535 -223h-385v678h-200zM369 160h226q247 0 423 176q175 175 175 422t-175 423q-176 175 -423 175h-226v-518h414v-160h-414v-518z" />
<glyph unicode="&#xd1;" horiz-adv-x="1462" d="M120 0v1531l1063 -1156v1141h159v-1550l-1063 1156v-1122h-159zM408 1611q0 93 46 152q52 67 142 67q67 0 165 -43q64 -28 93 -28v1h1q20 0 28 7q12 12 12 51v1h159v-1q0 -95 -59 -154q-54 -44 -140 -44h-1v1q-62 0 -156 31q-68 29 -102 29q-11 0 -16 -6q-13 -16 -13 -64 h-159z" />
<glyph unicode="&#xd2;" horiz-adv-x="1698" d="M80 756q0 331 223 561q223 229 546 229t546 -229q223 -230 223 -561q0 -332 -223 -562q-223 -229 -546 -229t-546 229q-223 230 -223 562zM239 756q0 -268 178 -451q175 -181 432 -181q256 0 432 181q177 183 177 451q0 267 -177 450q-176 181 -432 181q-257 0 -432 -181 q-178 -183 -178 -450zM609 1915h198l161 -270h-157z" />
<glyph unicode="&#xd3;" horiz-adv-x="1698" d="M80 756q0 331 223 561q223 229 546 229t546 -229q223 -230 223 -561q0 -332 -223 -562q-223 -229 -546 -229t-546 229q-223 230 -223 562zM239 756q0 -268 178 -451q175 -181 432 -181q256 0 432 181q177 183 177 451q0 267 -177 450q-176 181 -432 181q-257 0 -432 -181 q-178 -183 -178 -450zM729 1645l162 270h197l-201 -270h-158z" />
<glyph unicode="&#xd4;" horiz-adv-x="1698" d="M80 756q0 331 223 561q223 229 546 229t546 -229q223 -230 223 -561q0 -332 -223 -562q-223 -229 -546 -229t-546 229q-223 230 -223 562zM239 756q0 -268 178 -451q175 -181 432 -181q256 0 432 181q177 183 177 451q0 267 -177 450q-176 181 -432 181q-257 0 -432 -181 q-178 -183 -178 -450zM559 1585l290 396l289 -396h-166l-123 167l-123 -167h-167z" />
<glyph unicode="&#xd5;" horiz-adv-x="1698" d="M80 756q0 331 223 561q223 229 546 229t546 -229q223 -230 223 -561q0 -332 -223 -562q-223 -229 -546 -229t-546 229q-223 230 -223 562zM239 756q0 -268 178 -451q175 -181 432 -181q256 0 432 181q177 183 177 451q0 267 -177 450q-176 181 -432 181q-257 0 -432 -181 q-178 -183 -178 -450zM526 1611q0 93 46 152q52 67 142 67q67 0 165 -43q64 -28 93 -28v1h1q20 0 28 7q12 12 12 51v1h159v-1q0 -95 -59 -154q-54 -44 -140 -44h-1v1q-62 0 -156 31q-68 29 -102 29q-11 0 -16 -6q-13 -16 -13 -64h-159z" />
<glyph unicode="&#xd6;" horiz-adv-x="1698" d="M80 756q0 331 223 561q223 229 546 229t546 -229q223 -230 223 -561q0 -332 -223 -562q-223 -229 -546 -229t-546 229q-223 230 -223 562zM239 756q0 -268 178 -451q175 -181 432 -181q256 0 432 181q177 183 177 451q0 267 -177 450q-176 181 -432 181q-257 0 -432 -181 q-178 -183 -178 -450zM551 1716q0 41 29 70t69 29q41 0 70 -29t29 -70q0 -40 -29 -69t-70 -29q-40 0 -69 29t-29 69zM949 1716q0 41 29 70t70 29t69 -29q29 -29 29 -70t-29 -69q-28 -29 -69 -29t-70 29q-29 28 -29 69z" />
<glyph unicode="&#xd7;" horiz-adv-x="827" d="M50 483l251 251l-251 251l113 113l251 -251l250 251l113 -113l-251 -251l251 -251l-113 -113l-250 251l-251 -251z" />
<glyph unicode="&#xd8;" horiz-adv-x="1698" d="M80 756q0 331 223 561q223 229 546 229q93 0 177 -19l80 282h116l-89 -314q145 -57 262 -178q223 -230 223 -561q0 -332 -223 -562q-223 -229 -546 -229q-77 0 -148 13l-97 -340h-115l105 368q-162 56 -291 188q-223 230 -223 562zM239 756q0 -268 178 -451 q97 -101 220 -145l345 1214q-63 13 -133 13q-257 0 -432 -181q-178 -183 -178 -450zM745 132q50 -8 104 -8q256 0 432 181q177 183 177 451q0 267 -177 450q-87 89 -192 134z" />
<glyph unicode="&#xd9;" horiz-adv-x="1360" d="M120 525v991h159v-991q0 -165 118 -283q118 -117 283 -117t282 117q118 118 118 283v991h160v-991q0 -231 -165 -396q-164 -164 -395 -164t-396 164q-164 165 -164 396zM440 1915h198l161 -270h-157z" />
<glyph unicode="&#xda;" horiz-adv-x="1360" d="M120 525v991h159v-991q0 -165 118 -283q118 -117 283 -117t282 117q118 118 118 283v991h160v-991q0 -231 -165 -396q-164 -164 -395 -164t-396 164q-164 165 -164 396zM560 1645l162 270h197l-201 -270h-158z" />
<glyph unicode="&#xdb;" horiz-adv-x="1360" d="M120 525v991h159v-991q0 -165 118 -283q118 -117 283 -117t282 117q118 118 118 283v991h160v-991q0 -231 -165 -396q-164 -164 -395 -164t-396 164q-164 165 -164 396zM390 1585l290 396l289 -396h-166l-123 167l-123 -167h-167z" />
<glyph unicode="&#xdc;" horiz-adv-x="1360" d="M120 525v991h159v-991q0 -165 118 -283q118 -117 283 -117t282 117q118 118 118 283v991h160v-991q0 -231 -165 -396q-164 -164 -395 -164t-396 164q-164 165 -164 396zM382 1716q0 41 29 70t69 29q41 0 70 -29t29 -70q0 -40 -29 -69t-70 -29q-40 0 -69 29t-29 69z M780 1716q0 41 29 70t70 29t69 -29q29 -29 29 -70t-29 -69q-28 -29 -69 -29t-70 29q-29 28 -29 69z" />
<glyph unicode="&#xdd;" horiz-adv-x="1400" d="M10 1516h185l506 -840l505 840h184l-610 -1016v-500h-159v500zM580 1645l162 270h197l-201 -270h-158z" />
<glyph unicode="&#xde;" horiz-adv-x="1106" d="M120 0v1516h159v-280h278q203 0 348 -145t145 -348q0 -204 -145 -349t-348 -145h-277v-249h-160zM280 408h277q137 0 236 99q98 98 98 236q0 137 -98 236q-99 98 -236 98h-277v-669z" />
<glyph unicode="&#xdf;" horiz-adv-x="1175" d="M126 0l1 988q-7 157 44 294q96 257 360 257q159 0 258 -65q65 -43 98 -110q31 -62 31 -137q0 -168 -96 -323l-2 -2q-51 -78 -56 -114q-8 -57 60 -108q309 -230 289 -469q-12 -132 -120 -215q-98 -77 -233 -78q-124 -1 -231 66q-120 75 -191 219l144 70q96 -197 278 -196 q79 0 136 44q52 41 58 103q13 152 -225 329q-150 111 -142 222q5 70 100 214l2 3q70 115 70 235q0 38 -15 66q-14 29 -43 48q-58 39 -170 39q-168 0 -224 -194q-26 -93 -21 -194v-4v-988h-160z" />
<glyph unicode="&#xe0;" d="M75 479q0 212 150 362t363 150q236 0 353 -194v160h159v-957h-159v161q-117 -195 -353 -195q-213 0 -363 150t-150 363zM234 479q0 -147 104 -250q103 -104 250 -104q146 0 249 104q103 102 104 247v5q-1 145 -104 247q-103 104 -249 104q-147 0 -250 -104 q-104 -103 -104 -249zM348 1356h198l161 -270h-157z" />
<glyph unicode="&#xe1;" d="M75 479q0 212 150 362t363 150q236 0 353 -194v160h159v-957h-159v161q-117 -195 -353 -195q-213 0 -363 150t-150 363zM234 479q0 -147 104 -250q103 -104 250 -104q146 0 249 104q103 102 104 247v5q-1 145 -104 247q-103 104 -249 104q-147 0 -250 -104 q-104 -103 -104 -249zM468 1086l162 270h197l-201 -270h-158z" />
<glyph unicode="&#xe2;" d="M75 479q0 212 150 362t363 150q236 0 353 -194v160h159v-957h-159v161q-117 -195 -353 -195q-213 0 -363 150t-150 363zM234 479q0 -147 104 -250q103 -104 250 -104q146 0 249 104q103 102 104 247v5q-1 145 -104 247q-103 104 -249 104q-147 0 -250 -104 q-104 -103 -104 -249zM298 1026l290 396l289 -396h-166l-123 167l-123 -167h-167z" />
<glyph unicode="&#xe3;" d="M75 479q0 212 150 362t363 150q236 0 353 -194v160h159v-957h-159v161q-117 -195 -353 -195q-213 0 -363 150t-150 363zM234 479q0 -147 104 -250q103 -104 250 -104q146 0 249 104q103 102 104 247v5q-1 145 -104 247q-103 104 -249 104q-147 0 -250 -104 q-104 -103 -104 -249zM265 1072q0 93 46 152q52 67 142 67q67 0 165 -43q64 -28 93 -28v1h1q20 0 28 7q12 12 12 51v1h159v-1q0 -95 -59 -154q-54 -44 -140 -44h-1v1q-62 0 -156 31q-68 29 -102 29q-11 0 -16 -6q-13 -16 -13 -64h-159z" />
<glyph unicode="&#xe4;" d="M75 479q0 212 150 362t363 150q236 0 353 -194v160h159v-957h-159v161q-117 -195 -353 -195q-213 0 -363 150t-150 363zM234 479q0 -147 104 -250q103 -104 250 -104q146 0 249 104q103 102 104 247v5q-1 145 -104 247q-103 104 -249 104q-147 0 -250 -104 q-104 -103 -104 -249zM290 1157q0 41 29 70t69 29q41 0 70 -29t29 -70q0 -40 -29 -69t-70 -29q-40 0 -69 29t-29 69zM688 1157q0 41 29 70t70 29t69 -29q29 -29 29 -70t-29 -69q-28 -29 -69 -29t-70 29q-29 28 -29 69z" />
<glyph unicode="&#xe5;" d="M75 479q0 212 150 362t363 150q236 0 353 -194v160h159v-957h-159v161q-117 -195 -353 -195q-213 0 -363 150t-150 363zM234 479q0 -147 104 -250q103 -104 250 -104q146 0 249 104q103 102 104 247v5q-1 145 -104 247q-103 104 -249 104q-147 0 -250 -104 q-104 -103 -104 -249zM386 1227q0 92 65 156q64 65 156 65q90 0 155 -65t65 -156q0 -90 -65 -155t-155 -65q-92 0 -156 65q-65 64 -65 155zM514 1227q0 -38 27 -65t66 -27q38 0 65 27t27 65q0 39 -27 66t-65 27q-39 0 -66 -27t-27 -66z" />
<glyph unicode="&#xe6;" horiz-adv-x="2053" d="M75 479q0 212 150 362t363 150q236 0 353 -194v160h159v-137q7 8 15 16q150 150 361 150q212 0 361 -150q150 -149 150 -361v-79h-853q23 -98 94 -169q103 -102 273 -102q96 0 169 36q74 37 124 102l126 -96q-73 -96 -180 -149t-239 -53q-236 0 -386 150q-8 8 -15 16 v-131h-159v161q-117 -195 -353 -195q-213 0 -363 150t-150 363zM234 479q0 -147 104 -250q103 -104 250 -104q146 0 249 104q103 102 104 247v5q-1 145 -104 247q-103 104 -249 104q-147 0 -250 -104q-104 -103 -104 -249zM1134 555h684q-23 98 -94 169q-102 102 -248 102 q-145 0 -248 -102q-71 -71 -94 -169z" />
<glyph unicode="&#xe7;" horiz-adv-x="1101" d="M75 476q0 212 149 361q150 150 361 150q136 0 254 -68q118 -67 187 -185l-137 -81q-48 81 -129 128q-81 46 -175 46q-145 0 -248 -103q-103 -102 -103 -248q0 -145 103 -248t248 -103q94 0 175 47q81 46 129 127l137 -80q-69 -118 -187 -186q-118 -67 -254 -67 q-211 0 -361 149q-149 150 -149 361zM357 -410l47 86q70 -38 140 -38q35 0 57 8q19 8 26 21q6 11 6 26q0 40 -42 53q-25 8 -53 7l-63 -4l51 250h100l-31 -152q136 -13 136 -154q0 -40 -18 -73q-24 -44 -76 -64q-40 -16 -93 -16q-94 0 -187 50z" />
<glyph unicode="&#xe8;" horiz-adv-x="1171" d="M75 475q0 212 149 361q150 150 361 150q212 0 361 -150q150 -149 150 -361v-75h-852q22 -106 93 -179q103 -107 283 -107q106 0 179 41q74 38 126 107l124 -95q-73 -96 -180 -149t-249 -53q-246 0 -396 145q-149 154 -149 365zM244 553h683q-22 99 -94 170 q-102 103 -248 103q-145 0 -248 -103q-71 -71 -93 -170zM346 1356h198l161 -270h-157z" />
<glyph unicode="&#xe9;" horiz-adv-x="1171" d="M75 475q0 212 149 361q150 150 361 150q212 0 361 -150q150 -149 150 -361v-75h-852q22 -106 93 -179q103 -107 283 -107q106 0 179 41q74 38 126 107l124 -95q-73 -96 -180 -149t-249 -53q-246 0 -396 145q-149 154 -149 365zM244 553h683q-22 99 -94 170 q-102 103 -248 103q-145 0 -248 -103q-71 -71 -93 -170zM465 1086l162 270h197l-201 -270h-158z" />
<glyph unicode="&#xea;" horiz-adv-x="1171" d="M75 475q0 212 149 361q150 150 361 150q212 0 361 -150q150 -149 150 -361v-75h-852q22 -106 93 -179q103 -107 283 -107q106 0 179 41q74 38 126 107l124 -95q-73 -96 -180 -149t-249 -53q-246 0 -396 145q-149 154 -149 365zM244 553h683q-22 99 -94 170 q-102 103 -248 103q-145 0 -248 -103q-71 -71 -93 -170zM296 1026l290 396l289 -396h-166l-123 167l-123 -167h-167z" />
<glyph unicode="&#xeb;" horiz-adv-x="1171" d="M75 475q0 212 149 361q150 150 361 150q212 0 361 -150q150 -149 150 -361v-75h-852q22 -106 93 -179q103 -107 283 -107q106 0 179 41q74 38 126 107l124 -95q-73 -96 -180 -149t-249 -53q-246 0 -396 145q-149 154 -149 365zM244 553h683q-22 99 -94 170 q-102 103 -248 103q-145 0 -248 -103q-71 -71 -93 -170zM288 1157q0 41 29 70t69 29q41 0 70 -29t29 -70q0 -40 -29 -69t-70 -29q-40 0 -69 29t-29 69zM686 1157q0 41 29 70t70 29t69 -29q29 -29 29 -70t-29 -69q-28 -29 -69 -29t-70 29q-29 28 -29 69z" />
<glyph unicode="&#xec;" horiz-adv-x="477" d="M-1 1356h198l161 -270h-157zM159 0v957h159v-957h-159z" />
<glyph unicode="&#xed;" horiz-adv-x="477" d="M119 1086l162 270h197l-201 -270h-158zM159 0v957h159v-957h-159z" />
<glyph unicode="&#xee;" horiz-adv-x="477" d="M-51 1026l290 396l289 -396h-166l-123 167l-123 -167h-167zM159 0v957h159v-957h-159z" />
<glyph unicode="&#xef;" horiz-adv-x="477" d="M-59 1157q0 41 29 70t69 29q41 0 70 -29t29 -70q0 -40 -29 -69t-70 -29q-40 0 -69 29t-29 69zM159 0v957h159v-957h-159zM339 1157q0 41 29 70t70 29t69 -29q29 -29 29 -70t-29 -69q-28 -29 -69 -29t-70 29q-29 28 -29 69z" />
<glyph unicode="&#xf0;" horiz-adv-x="1328" d="M120 551q0 227 158 388q159 162 383 162q152 0 281 -80q-97 186 -273 291l-101 -111l-117 108l66 73q-55 19 -115 32l33 156q105 -23 198 -61l74 81l118 -107l-46 -51q283 -181 382 -534q47 -171 42 -319h-1q1 -14 1 -28q0 -228 -158 -389q-159 -162 -384 -162 q-224 0 -383 162q-158 161 -158 389zM279 551q0 -163 113 -278q111 -114 269 -114q159 0 270 114q112 115 112 278q0 162 -112 277q-111 114 -270 114q-158 0 -269 -114q-113 -115 -113 -277z" />
<glyph unicode="&#xf1;" horiz-adv-x="1170" d="M120 0v957h159v-172q101 207 306 207q192 0 328 -137q137 -136 137 -328v-527h-160v527q0 126 -90 215q-89 90 -215 90t-216 -90q-88 -88 -90 -213v-529h-159zM262 1052q0 93 46 152q52 67 142 67q67 0 165 -43q64 -28 93 -28v1h1q20 0 28 7q12 12 12 51v1h159v-1 q0 -95 -59 -154q-54 -44 -140 -44h-1v1q-62 0 -156 31q-68 29 -102 29q-11 0 -16 -6q-13 -16 -13 -64h-159z" />
<glyph unicode="&#xf2;" horiz-adv-x="1175" d="M75 478q0 212 150 362t363 150q212 0 362 -150t150 -362q0 -213 -150 -363t-362 -150q-213 0 -363 150t-150 363zM234 478q0 -147 104 -250q103 -104 250 -104q146 0 249 104q104 103 104 250q0 146 -104 249q-103 104 -249 104q-147 0 -250 -104q-104 -103 -104 -249z M348 1356h198l161 -270h-157z" />
<glyph unicode="&#xf3;" horiz-adv-x="1175" d="M75 478q0 212 150 362t363 150q212 0 362 -150t150 -362q0 -213 -150 -363t-362 -150q-213 0 -363 150t-150 363zM234 478q0 -147 104 -250q103 -104 250 -104q146 0 249 104q104 103 104 250q0 146 -104 249q-103 104 -249 104q-147 0 -250 -104q-104 -103 -104 -249z M468 1086l162 270h197l-201 -270h-158z" />
<glyph unicode="&#xf4;" horiz-adv-x="1175" d="M75 478q0 212 150 362t363 150q212 0 362 -150t150 -362q0 -213 -150 -363t-362 -150q-213 0 -363 150t-150 363zM234 478q0 -147 104 -250q103 -104 250 -104q146 0 249 104q104 103 104 250q0 146 -104 249q-103 104 -249 104q-147 0 -250 -104q-104 -103 -104 -249z M298 1026l290 396l289 -396h-166l-123 167l-123 -167h-167z" />
<glyph unicode="&#xf5;" horiz-adv-x="1175" d="M75 478q0 212 150 362t363 150q212 0 362 -150t150 -362q0 -213 -150 -363t-362 -150q-213 0 -363 150t-150 363zM234 478q0 -147 104 -250q103 -104 250 -104q146 0 249 104q104 103 104 250q0 146 -104 249q-103 104 -249 104q-147 0 -250 -104q-104 -103 -104 -249z M265 1052q0 93 46 152q52 67 142 67q67 0 165 -43q64 -28 93 -28v1h1q20 0 28 7q12 12 12 51v1h159v-1q0 -95 -59 -154q-54 -44 -140 -44h-1v1q-62 0 -156 31q-68 29 -102 29q-11 0 -16 -6q-13 -16 -13 -64h-159z" />
<glyph unicode="&#xf6;" horiz-adv-x="1175" d="M75 478q0 212 150 362t363 150q212 0 362 -150t150 -362q0 -213 -150 -363t-362 -150q-213 0 -363 150t-150 363zM234 478q0 -147 104 -250q103 -104 250 -104q146 0 249 104q104 103 104 250q0 146 -104 249q-103 104 -249 104q-147 0 -250 -104q-104 -103 -104 -249z M290 1157q0 41 29 70t69 29q41 0 70 -29t29 -70q0 -40 -29 -69t-70 -29q-40 0 -69 29t-29 69zM688 1157q0 41 29 70t70 29t69 -29q29 -29 29 -70t-29 -69q-28 -29 -69 -29t-70 29q-29 28 -29 69z" />
<glyph unicode="&#xf7;" horiz-adv-x="763" d="M120 500v160h523v-160h-523zM302 115v159h159v-159h-159zM302 885v159h159v-159h-159z" />
<glyph unicode="&#xf8;" horiz-adv-x="1175" d="M75 478q0 212 150 362t363 150q42 0 82 -6l80 286h126l-90 -318q90 -38 164 -112q150 -150 150 -362q0 -213 -150 -363t-362 -150q-40 0 -79 5l-88 -313h-125l97 345q-92 37 -168 113q-150 150 -150 363zM234 478q0 -147 104 -250q45 -46 99 -71l189 672q-19 2 -38 2 q-147 0 -250 -104q-104 -103 -104 -249zM553 126q17 -2 35 -2q146 0 249 104q104 103 104 250q0 146 -104 249q-43 44 -95 69z" />
<glyph unicode="&#xf9;" horiz-adv-x="1139" d="M120 432v525h159v-525q0 -127 87 -217q85 -89 204 -89t204 89q85 88 86 214v528h159v-989h-159v172q-104 -173 -290 -173q-187 0 -319 138q-131 136 -131 327zM330 1356h198l161 -270h-157z" />
<glyph unicode="&#xfa;" horiz-adv-x="1139" d="M120 432v525h159v-525q0 -127 87 -217q85 -89 204 -89t204 89q85 88 86 214v528h159v-989h-159v172q-104 -173 -290 -173q-187 0 -319 138q-131 136 -131 327zM450 1086l162 270h197l-201 -270h-158z" />
<glyph unicode="&#xfb;" horiz-adv-x="1139" d="M120 432v525h159v-525q0 -127 87 -217q85 -89 204 -89t204 89q85 88 86 214v528h159v-989h-159v172q-104 -173 -290 -173q-187 0 -319 138q-131 136 -131 327zM280 1026l290 396l289 -396h-166l-123 167l-123 -167h-167z" />
<glyph unicode="&#xfc;" horiz-adv-x="1139" d="M120 432v525h159v-525q0 -127 87 -217q85 -89 204 -89t204 89q85 88 86 214v528h159v-989h-159v172q-104 -173 -290 -173q-187 0 -319 138q-131 136 -131 327zM272 1157q0 41 29 70t69 29q41 0 70 -29t29 -70q0 -40 -29 -69t-70 -29q-40 0 -69 29t-29 69zM670 1157 q0 41 29 70t70 29t69 -29q29 -29 29 -70t-29 -69q-28 -29 -69 -29t-70 29q-29 28 -29 69z" />
<glyph unicode="&#xfd;" horiz-adv-x="1072" d="M10 957h175l351 -765l352 765h174l-695 -1514h-175l257 559zM416 1086l162 270h197l-201 -270h-158z" />
<glyph unicode="&#xfe;" d="M120 -558v2074h159v-719q118 194 354 194q212 0 362 -150t150 -363q0 -212 -150 -362t-362 -150q-236 0 -354 194v-718h-159zM279 476q1 -145 104 -247q103 -104 250 -104q146 0 249 104q104 103 104 249q0 147 -104 250q-103 104 -249 104q-147 0 -250 -104 q-103 -102 -104 -247v-5z" />
<glyph unicode="&#xff;" horiz-adv-x="1072" d="M10 957h175l351 -765l352 765h174l-695 -1514h-175l257 559zM238 1157q0 41 29 70t69 29q41 0 70 -29t29 -70q0 -40 -29 -69t-70 -29q-40 0 -69 29t-29 69zM636 1157q0 41 29 70t70 29t69 -29q29 -29 29 -70t-29 -69q-28 -29 -69 -29t-70 29q-29 28 -29 69z" />
<glyph unicode="&#x152;" horiz-adv-x="2343" d="M80 756q0 331 223 561q223 229 546 229t546 -229q38 -39 69 -81v279h835v-158h-675v-520h554v-159h-554v-519h675v-159h-835v275q-31 -42 -69 -81q-223 -229 -546 -229t-546 229q-223 230 -223 562zM239 756q0 -268 178 -451q175 -181 432 -181q256 0 432 181 q177 183 177 451q0 267 -177 450q-176 181 -432 181q-257 0 -432 -181q-178 -183 -178 -450z" />
<glyph unicode="&#x153;" horiz-adv-x="2050" d="M75 478q0 212 150 362t363 150q212 0 362 -150q47 -47 79 -100q32 51 77 96q149 150 361 150q211 0 360 -150q150 -149 150 -361v-80h-852q22 -97 93 -168q103 -103 274 -103q95 0 168 37q74 36 124 102l127 -96q-73 -96 -180 -149t-239 -53q-237 0 -386 149 q-46 46 -78 99q-32 -52 -78 -98q-150 -150 -362 -150q-213 0 -363 150t-150 363zM234 478q0 -147 104 -250q103 -104 250 -104q146 0 249 104q104 103 104 250q0 146 -104 249q-103 104 -249 104q-147 0 -250 -104q-104 -103 -104 -249zM1125 555h683q-22 97 -93 168 q-103 103 -248 103q-146 0 -249 -103q-71 -71 -93 -168z" />
<glyph unicode="&#x178;" horiz-adv-x="1400" d="M10 1516h185l506 -840l505 840h184l-610 -1016v-500h-159v500zM402 1716q0 41 29 70t69 29q41 0 70 -29t29 -70q0 -40 -29 -69t-70 -29q-40 0 -69 29t-29 69zM800 1716q0 41 29 70t70 29t69 -29q29 -29 29 -70t-29 -69q-28 -29 -69 -29t-70 29q-29 28 -29 69z" />
<glyph unicode="&#x2c6;" horiz-adv-x="821" d="M121 1026l290 396l289 -396h-166l-123 167l-123 -167h-167z" />
<glyph unicode="&#x2dc;" horiz-adv-x="886" d="M120 1052q0 93 46 152q52 67 142 67q67 0 165 -43q64 -28 93 -28v1h1q20 0 28 7q12 12 12 51v1h159v-1q0 -95 -59 -154q-54 -44 -140 -44h-1v1q-62 0 -156 31q-68 29 -102 29q-11 0 -16 -6q-13 -16 -13 -64h-159z" />
<glyph unicode="&#x2000;" horiz-adv-x="995" />
<glyph unicode="&#x2001;" horiz-adv-x="1990" />
<glyph unicode="&#x2002;" horiz-adv-x="995" />
<glyph unicode="&#x2003;" horiz-adv-x="1990" />
<glyph unicode="&#x2004;" horiz-adv-x="663" />
<glyph unicode="&#x2005;" horiz-adv-x="497" />
<glyph unicode="&#x2006;" horiz-adv-x="331" />
<glyph unicode="&#x2007;" horiz-adv-x="331" />
<glyph unicode="&#x2008;" horiz-adv-x="248" />
<glyph unicode="&#x2009;" horiz-adv-x="398" />
<glyph unicode="&#x200a;" horiz-adv-x="110" />
<glyph unicode="&#x2010;" horiz-adv-x="763" d="M120 500v160h523v-160h-523z" />
<glyph unicode="&#x2011;" horiz-adv-x="763" d="M120 500v160h523v-160h-523z" />
<glyph unicode="&#x2012;" horiz-adv-x="763" d="M120 500v160h523v-160h-523z" />
<glyph unicode="&#x2013;" horiz-adv-x="1112" d="M50 422v148h1012v-148h-1012z" />
<glyph unicode="&#x2014;" horiz-adv-x="1512" d="M50 422v148h1412v-148h-1412z" />
<glyph unicode="&#x2018;" horiz-adv-x="399" d="M120 1178v159l50 179h84l-50 -179h75v-159h-159z" />
<glyph unicode="&#x2019;" horiz-adv-x="399" d="M120 1357v159h159v-159l-50 -179h-84l50 179h-75z" />
<glyph unicode="&#x201a;" horiz-adv-x="399" d="M120 10v159h159v-159l-50 -179h-84l50 179h-75z" />
<glyph unicode="&#x201c;" horiz-adv-x="622" d="M120 1178v159l50 179h84l-50 -179h75v-159h-159zM343 1178v159l50 179h84l-50 -179h75v-159h-159z" />
<glyph unicode="&#x201d;" horiz-adv-x="622" d="M120 1357v159h159v-159l-50 -179h-84l50 179h-75zM343 1357v159h159v-159l-50 -179h-84l50 179h-75z" />
<glyph unicode="&#x201e;" horiz-adv-x="622" d="M120 10v159h159v-159l-50 -179h-84l50 179h-75zM343 10v159h159v-159l-50 -179h-84l50 179h-75z" />
<glyph unicode="&#x2022;" horiz-adv-x="866" d="M120 728q0 130 91.5 221.5t221.5 91.5t221.5 -91.5t91.5 -221.5q0 -129 -91.5 -221t-221.5 -92t-221.5 92t-91.5 221z" />
<glyph unicode="&#x2026;" horiz-adv-x="2048" d="M120 0v159h159v-159h-159zM803 0v159h159v-159h-159zM1486 0v159h159v-159h-159z" />
<glyph unicode="&#x202f;" horiz-adv-x="398" />
<glyph unicode="&#x2039;" horiz-adv-x="634" d="M50 480l330 449h199l-330 -449l331 -450h-199z" />
<glyph unicode="&#x203a;" horiz-adv-x="634" d="M50 30l331 450l-330 449h199l330 -449l-331 -450h-199z" />
<glyph unicode="&#x205f;" horiz-adv-x="497" />
<glyph unicode="&#x20ac;" horiz-adv-x="1433" d="M120 612v160h141q-1 26 -1 52q0 36 2 72h-142v159h165q18 81 48 154q80 196 229 302q147 105 337 105q134 0 252 -34q88 -26 162 -70l-82 -136q-56 33 -125 53q-94 28 -207 28q-140 0 -244 -75q-112 -80 -175 -233q-18 -45 -31 -94h716v-159h-743q-3 -36 -3 -72 q0 -26 2 -52h688v-160h-665q32 -131 98 -224q108 -151 295 -185q194 -36 373 66l79 -138q-229 -131 -481 -85q-251 47 -396 250q-94 132 -131 316h-161z" />
<glyph unicode="&#x2122;" horiz-adv-x="1310" d="M20 1428v84h433v-84h-171v-522h-92v522h-170zM493 906v619l368 -473l369 473v-619h-92v368l-277 -357l-277 357v-368h-91z" />
<glyph unicode="&#x25fc;" horiz-adv-x="955" d="M0 0v955h955v-955h-955z" />
<glyph unicode="&#xfb01;" horiz-adv-x="1156" d="M120 0v965q0 338 116 466q108 119 376 119v-160q-198 0 -258 -66q-75 -82 -75 -359v-8h334v-160h-334v-797h-159zM819 1417q0 41 29 70t69 29q41 0 70 -29t29 -70q0 -40 -29 -69t-70 -29q-40 0 -69 29t-29 69zM838 0v957h159v-957h-159z" />
<glyph unicode="&#xfb02;" horiz-adv-x="1238" d="M120 0v965q0 338 116 466q108 119 376 119v-160q-198 0 -258 -66q-75 -82 -75 -359v-8h334v-160h-334v-797h-159zM879 0v1516h159v-1516h-159z" />
</font>
</defs>
</svg>
